<?xml version="1.0" standalone="no"?>
<!DOCTYPE svg PUBLIC "-//W3C//DTD SVG 20010904//EN"
 "http://www.w3.org/TR/2001/REC-SVG-20010904/DTD/svg10.dtd">
<svg version="1.0" xmlns="http://www.w3.org/2000/svg"
 width="842.000000pt" height="595.000000pt" viewBox="0 0 842.000000 595.000000"
 preserveAspectRatio="xMidYMid meet">
<metadata>
Created by potrace 1.16, written by Peter Selinger 2001-2019
</metadata>
<g transform="translate(0.000000,595.000000) scale(0.100000,-0.100000)"
fill="#000000" stroke="none">
<path d="M4469 4781 c-35 -29 -17 -50 73 -87 73 -30 203 -103 196 -110 -2 -1
-64 4 -138 13 -110 13 -155 14 -242 5 -114 -12 -213 -44 -232 -75 -17 -27 8
-37 99 -37 135 0 141 -8 34 -46 -144 -51 -305 -135 -430 -225 l-113 -81 -21
29 c-11 15 -31 41 -45 57 l-26 28 -38 -26 c-21 -14 -50 -26 -63 -26 -32 0 -93
26 -121 53 -31 29 -62 89 -62 121 0 22 -6 26 -47 33 -27 4 -91 8 -143 8 -86 0
-101 -3 -155 -30 -70 -35 -108 -84 -126 -160 -15 -65 -3 -106 57 -210 86 -147
112 -200 125 -248 6 -26 9 -50 6 -53 -3 -3 -22 5 -44 19 -106 67 -253 101
-412 95 -76 -2 -96 -6 -105 -20 -19 -31 14 -49 124 -69 103 -18 166 -38 203
-64 17 -12 2 -13 -119 -8 -146 6 -189 -2 -178 -32 4 -8 43 -26 88 -40 105 -33
186 -65 186 -75 0 -4 -92 -98 -204 -208 -185 -181 -212 -204 -283 -237 -206
-98 -243 -118 -307 -166 -174 -133 -282 -349 -274 -554 3 -82 6 -95 30 -128
36 -46 113 -83 211 -102 81 -15 471 -50 687 -60 491 -24 801 -67 1115 -155
114 -31 293 -64 440 -80 182 -20 542 -30 701 -20 510 33 916 196 1157 468 l29
32 51 -27 c65 -36 157 -120 195 -181 36 -56 62 -140 62 -199 0 -69 -29 -192
-60 -252 -52 -104 -159 -188 -293 -229 -47 -15 -228 -17 -1802 -22 -1646 -5
-1752 -6 -1778 -22 -76 -51 -82 -165 -12 -227 l36 -31 1743 0 c1916 0 1825 -3
1983 60 202 81 354 238 421 436 34 99 45 186 40 317 -4 107 -9 132 -36 202
-17 44 -48 105 -68 135 -53 79 -179 199 -252 240 -102 57 -95 46 -75 120 15
53 18 104 18 280 0 229 -12 353 -50 543 -84 411 -252 711 -510 906 -74 56
-217 129 -300 154 -60 18 -96 34 -288 126 -248 118 -393 161 -550 161 -69 0
-89 -4 -108 -19z m-1114 -657 c112 -29 191 -90 233 -183 22 -48 24 -63 20
-150 -10 -191 -108 -341 -222 -341 -96 0 -134 60 -212 336 -57 202 -63 277
-25 318 36 38 109 46 206 20z"/>
</g>
</svg>
